<svg width="21" height="20" viewBox="0 0 21 20" fill="none" xmlns="http://www.w3.org/2000/svg">
<path d="M9.32091 18.1979L9.3202 18.1972C6.60692 15.6433 4.3941 13.5569 2.85377 11.6008C1.31944 9.65224 0.5 7.89067 0.5 5.99455C0.5 2.8857 2.83398 0.5 5.775 0.5C7.44378 0.5 9.05915 1.30908 10.1147 2.58564L10.5 3.05168L10.8853 2.58564C11.9408 1.30908 13.5562 0.5 15.225 0.5C18.166 0.5 20.5 2.8857 20.5 5.99455C20.5 7.89067 19.6806 9.65224 18.1462 11.6008C16.6059 13.5569 14.3931 15.6433 11.6798 18.1972L11.6791 18.1979L10.5 19.3121L9.32091 18.1979Z" stroke="#CA0000"/>
</svg>
