<svg width="24" height="28" viewBox="0 0 24 28" fill="none" xmlns="http://www.w3.org/2000/svg">
<path opacity="0.5" d="M22.661 4.90106L23.5607 5.76885L22.661 4.90106C22.6103 4.95357 22.5514 4.97434 22.5 4.97434H14.5813C13.4179 4.97434 12.4128 5.40575 11.5783 5.90239C10.9634 6.2683 10.355 6.72685 9.82749 7.12442C9.66332 7.24816 9.50698 7.36599 9.36073 7.47328C8.812 7.87582 8.1619 8.08841 7.5 8.08841C6.8381 8.08841 6.188 7.87582 5.63927 7.47328C5.42871 7.31881 5.23685 7.13913 5.0673 6.93819C4.33459 6.06982 3.12801 4.97434 1.5 4.97434C1.44855 4.97434 1.38968 4.95357 1.33903 4.90106C1.2869 4.84701 1.25 4.7644 1.25 4.66921C1.25 4.57402 1.2869 4.4914 1.33903 4.43735C1.38968 4.38484 1.44855 4.36407 1.5 4.36407C3.12801 4.36407 4.33459 3.2686 5.0673 2.40023L4.11196 1.59412L5.06731 2.40023C5.23685 2.19929 5.42871 2.0196 5.63927 1.86514C6.188 1.4626 6.8381 1.25 7.5 1.25C8.1619 1.25 8.812 1.4626 9.36073 1.86514C9.50699 1.97243 9.66332 2.09026 9.8275 2.21399C10.355 2.61156 10.9634 3.07011 11.5783 3.43602C12.4128 3.93266 13.4179 4.36407 14.5813 4.36407H22.5C22.5514 4.36407 22.6103 4.38484 22.661 4.43736C22.7131 4.4914 22.75 4.57401 22.75 4.66921C22.75 4.7644 22.7131 4.84702 22.661 4.90106ZM5.53965 2.70177L6.43934 3.56956L5.53965 2.70177C5.02917 3.23101 4.75 3.9395 4.75 4.66921C4.75 5.39891 5.02917 6.1074 5.53965 6.63664C6.05161 7.16742 6.7558 7.47434 7.5 7.47434C8.2442 7.47434 8.94839 7.16742 9.46035 6.63664C9.97083 6.1074 10.25 5.39891 10.25 4.66921C10.25 3.93951 9.97083 3.23101 9.46035 2.70177C8.94839 2.171 8.2442 1.86407 7.5 1.86407C6.7558 1.86407 6.05161 2.17099 5.53965 2.70177ZM16.5 11.1949C15.7558 11.1949 15.0516 11.5018 14.5397 12.0326C14.0292 12.5618 13.75 13.2703 13.75 14C13.75 14.7297 14.0292 15.4382 14.5397 15.9674C15.0516 16.4982 15.7558 16.8051 16.5 16.8051C17.2442 16.8051 17.9484 16.4982 18.4603 15.9674C18.9708 15.4382 19.25 14.7297 19.25 14C19.25 13.2703 18.9708 12.5618 18.4603 12.0326C17.9484 11.5018 17.2442 11.1949 16.5 11.1949ZM9.41867 13.6949C10.5821 13.6949 11.5872 13.2635 12.4217 12.7668C13.0366 12.4009 13.645 11.9424 14.1725 11.5448C14.3367 11.4211 14.493 11.3032 14.6393 11.1959C15.188 10.7934 15.8381 10.5808 16.5 10.5808C17.1619 10.5808 17.812 10.7934 18.3607 11.1959C18.5713 11.3504 18.7631 11.5301 18.9327 11.731C19.6654 12.5994 20.872 13.6949 22.5 13.6949C22.5515 13.6949 22.6103 13.7156 22.661 13.7681C22.7131 13.8222 22.75 13.9048 22.75 14C22.75 14.0952 22.7131 14.1778 22.661 14.2318C22.6103 14.2844 22.5514 14.3051 22.5 14.3051C20.872 14.3051 19.6654 15.4006 18.9327 16.269C18.7631 16.4699 18.5713 16.6496 18.3607 16.8041C17.812 17.2066 17.1619 17.4192 16.5 17.4192C15.8381 17.4192 15.188 17.2066 14.6393 16.8041C14.493 16.6968 14.3367 16.5789 14.1725 16.4552C13.645 16.0576 13.0366 15.5991 12.4217 15.2332C11.5872 14.7365 10.5821 14.3051 9.41867 14.3051H1.5C1.44856 14.3051 1.38968 14.2844 1.33903 14.2318C1.2869 14.1778 1.25 14.0952 1.25 14C1.25 13.9048 1.2869 13.8222 1.33903 13.7681C1.38968 13.7156 1.44855 13.6949 1.5 13.6949H9.41867ZM7.5 20.5257C6.7558 20.5257 6.05161 20.8326 5.53965 21.3634C5.02917 21.8926 4.75 22.6011 4.75 23.3308C4.75 24.0605 5.02917 24.769 5.53965 25.2982C6.05161 25.829 6.7558 26.1359 7.5 26.1359C8.2442 26.1359 8.94839 25.829 9.46035 25.2982C9.97083 24.769 10.25 24.0605 10.25 23.3308C10.25 22.6011 9.97083 21.8926 9.46035 21.3634C8.94839 20.8326 8.2442 20.5257 7.5 20.5257ZM1.5 23.0257C3.12801 23.0257 4.33459 21.9302 5.0673 21.0618C5.23685 20.8609 5.42871 20.6812 5.63927 20.5267C6.188 20.1242 6.8381 19.9116 7.5 19.9116C8.1619 19.9116 8.812 20.1242 9.36073 20.5267C9.50698 20.634 9.66332 20.7518 9.82749 20.8756C10.355 21.2731 10.9634 21.7317 11.5783 22.0976C12.4128 22.5942 13.4179 23.0257 14.5813 23.0257H22.5C22.5514 23.0257 22.6103 23.0464 22.661 23.0989C22.7131 23.153 22.75 23.2356 22.75 23.3308C22.75 23.426 22.7131 23.5086 22.661 23.5626C22.6103 23.6152 22.5515 23.6359 22.5 23.6359H14.5813C13.4179 23.6359 12.4128 24.0673 11.5783 24.564C10.9634 24.9299 10.355 25.3884 9.82748 25.786C9.66331 25.9098 9.50698 26.0276 9.36073 26.1349C8.812 26.5374 8.1619 26.75 7.5 26.75C6.8381 26.75 6.188 26.5374 5.63927 26.1349C5.42871 25.9804 5.23686 25.8007 5.0673 25.5998C4.33459 24.7314 3.12801 23.6359 1.5 23.6359C1.44855 23.6359 1.38967 23.6152 1.33903 23.5626C1.2869 23.5086 1.25 23.426 1.25 23.3308C1.25 23.2356 1.2869 23.153 1.33903 23.0989C1.38968 23.0464 1.44855 23.0257 1.5 23.0257Z" stroke="white" stroke-width="2.5"/>
</svg>
