<svg width="110" height="110" viewBox="0 0 110 110" fill="none" xmlns="http://www.w3.org/2000/svg">
<path d="M55 16.5385V5M27.8038 27.8038L19.6462 19.6462M16.5385 55H5M55 105V93.4615M90.3538 90.3538L82.1961 82.2M105 55H93.4615M27.8038 82.1961L19.6462 90.3538M90.3538 19.6462L82.2 27.8038M78.0769 55C78.0769 61.1204 75.6456 66.9901 71.3178 71.3178C66.9901 75.6456 61.1204 78.0769 55 78.0769C48.8796 78.0769 43.0099 75.6456 38.6822 71.3178C34.3544 66.9901 31.9231 61.1204 31.9231 55C31.9231 48.8796 34.3544 43.0099 38.6822 38.6822C43.0099 34.3544 48.8796 31.9231 55 31.9231C61.1204 31.9231 66.9901 34.3544 71.3178 38.6822C75.6456 43.0099 78.0769 48.8796 78.0769 55Z" stroke="#F9AB37" stroke-width="9" stroke-linecap="round" stroke-linejoin="round"/>
</svg>
